# xmcd
#
# Track frame offsets:
#	150
#	4387
#	18785
#	34152
#	48162
#	62277
#	74687
#	85822
#	95680
#	101975
#	110087
#	127600
#	154470
#	178857
#	198555
#	216195
#	235852
#
# Disc length: 3395 seconds
#
# Revision: 0
# Processed by: cddbd v1.4PL0 Copyright (c) Steve Scherf et al.
# Submitted via: dBpowerAMP V4.0
#
DISCID=ec0d4111
DTITLE=John Cougar Mellenkamp - Live USA CD2
DYEAR=1900
DGENRE=Country
TTITLE0=Mercedes Benz
TTITLE1=Sam Stone
TTITLE2=Taxi Dancer
TTITLE3=All Along The Watchower
TTITLE4=Pleace Don't Bury Me
TTITLE5=Street Fighting Man
TTITLE6=Thundering Hearts
TTITLE7=Last Of The Rock Stars
TTITLE8=White Middle Class Blue
TTITLE9=Mama Don't Tell Lies
TTITLE10=Ain't That America
TTITLE11=Authority Song
TTITLE12=Martha Said
TTITLE13=The Real Live
TTITLE14=Get A Leg Up
TTITLE15=Pop Singer
TTITLE16=Love And Happiness
EXTD=
EXTT0=
EXTT1=
EXTT2=
EXTT3=
EXTT4=
EXTT5=
EXTT6=
EXTT7=
EXTT8=
EXTT9=
EXTT10=
EXTT11=
EXTT12=
EXTT13=
EXTT14=
EXTT15=
EXTT16=
PLAYORDER=
